{"title":"Deadly.Impact.2009.SWESUB.DVDRip.XviD.AC3.(5.1).-Zen_Bud","uid":5710404,"size":1469589884,"categoryP":"video","categoryS":"movies","magnet":"?xt=urn:btih:5c4b67a698cfa1dd9569286efd159b25f393c553&amp;dn=Deadly.Impact.2009.SWESUB.DVDRip.XviD.AC3.%285.1%29.-Zen_Bud&amp;tr=udp%3A%2F%2Ftracker.openbittorrent.com%3A80&amp;tr=udp%3A%2F%2Fopen.demonii.com%3A1337&amp;tr=udp%3A%2F%2Ftracker.coppersurfer.tk%3A6969&amp;tr=udp%3A%2F%2Fexodus.desync.com%3A6969","seeders":0,"leechers":1,"uploader":null,"files":1,"time":1279873123,"description":"General\nComplete name                    : Deadly.Impact.2009.avi\nFormat                           : AVI\nFile size                        : 1.37 GiB\nDuration                         : 1h 32mn\nOverall bit rate                 : 2 120 Kbps\n\nVideo\n\nFormat                           : MPEG-4 Visual\nCodec ID/Hint                    : XviD\nDuration                         : 1h 32mn\nBit rate                         : 1 661 Kbps\nWidth                            : 718 pixels\nHeight                           : 570 pixels\nDisplay aspect ratio             : 16:9\nStream size                      : 1.07 GiB (78%)\nWriting library                  : XviD 1.1.2 (UTC 2006-11-01)\n\nAudio\n\nFormat                           : AC-3\nDuration                         : 1h 32mn\nBit rate                         : 448 Kbps\nChannel(s)                       : 6 channels\nChannel positions                : Front: L C R, Side: L R, LFE\nSampling rate                    : 48.0 KHz\nStream size                      : 296 MiB (21%)","torrent":{"xt":"urn:btih:5c4b67a698cfa1dd9569286efd159b25f393c553","amp;dn":"Deadly.Impact.2009.SWESUB.DVDRip.XviD.AC3.%285.1%29.-Zen_Bud","amp;tr":["udp%3A%2F%2Ftracker.openbittorrent.com%3A80","udp%3A%2F%2Fopen.demonii.com%3A1337","udp%3A%2F%2Ftracker.coppersurfer.tk%3A6969","udp%3A%2F%2Fexodus.desync.com%3A6969"],"infoHash":"5c4b67a698cfa1dd9569286efd159b25f393c553","infoHashBuffer":{"type":"Buffer","data":[92,75,103,166,152,207,161,221,149,105,40,110,253,21,155,37,243,147,197,83]},"announce":[],"urlList":[]}}